:SAMPLES-PER-SECOND 30
:FULLY-SPECIFIED
:DEGREES
46
root  34.86257538 36.55225498 -14.53040266 9.63955307 -4.386106014 3.112868786
lowerback  -8.918519974 -0.2001909465 -0.3648855388
upperback  -3.638750076 0.2215140015 -3.237179995
thorax  1.241449952 0.2624819875 -3.117429972
lowerneck  -13.68970013 -5.713049889 -4.729710102
upperneck  13.65130043 -7.804120541 6.971469879
head  6.887110233 -3.342230082 2.233779907
lclavicle  0 -4.497500157e-015 -2.743230041e-014
lhumerus  -48.40980148 31.16379929 62.5862999
lradius  0.00954947155 -6.507048965e-006 29.48662758
lwrist  3.192251654e-007 -3.790274832e-007 -28.77529907
lhand  -3.516721181e-031 -36.83380127 -10.68150043
lfingers  90 7.125020027 -90
lthumb  94.78643799 -25.51960564 100.998848
rclavicle  0 -4.497500157e-015 -2.743230041e-014
rhumerus  -42.00619888 -23.41629982 -58.59939957
rradius  -5.16745672e-007 2.214343908e-008 81.34079742
rwrist  0.0006954420824 -0.004670973402 -171.048996
rhand  -3.004313352e-031 -1.610659957 -7.88409996
rfingers  -90 -7.125020027 -90
rthumb  -86.47255707 -7.850887775 -65.71107483
rfemur  -12.20601559 15.43682098 12.8687315
rtibia  -0.4078699946 -0.8970168829 19.32884216
rfoot  0.7061602473 -21.69658852 -36.12921143
rtoes  4.060096741 19.60910797 -101.9473877
lfemur  -7.90405035 -15.76838493 -20.13926697
ltibia  3.219132185 0.05701506138 13.33285904
lfoot  0.5265182257 -24.6820507 35.90247345
ltoes  -8.686120033 -18.08528709 -116.2032623
47
root  34.85424312 36.55328225 -14.52550663 9.693624496 -4.329863548 3.11474514
lowerback  -8.90320015 -0.2233659625 -0.3423079848
upperback  -3.622970104 0.1874389946 -3.242449999
thorax  1.247560024 0.2447109967 -3.139019966
lowerneck  -13.6281004 -5.734960079 -4.710080147
upperneck  13.61709976 -7.832399368 6.933889866
head  6.864749908 -3.360409737 2.216919899
lclavicle  0 -4.497500157e-015 -2.743230041e-014
lhumerus  -48.39459991 31.14259911 62.58729935
lradius  0.00954947155 -6.507048965e-006 29.49379921
lwrist  3.192251654e-007 -3.790274832e-007 -28.73349953
lhand  -3.513980903e-031 -36.81430054 -10.71730042
lfingers  90 7.125020027 -90
lthumb  94.78479767 -25.55534554 100.9811707
rclavicle  0 -4.497500157e-015 -2.743230041e-014
rhumerus  -41.33739853 -23.03190041 -58.60430145
rradius  -5.16745672e-007 2.214343908e-008 82.74220276
rwrist  0.0006954420824 -0.004670973402 -171.7019958
rhand  -2.999383946e-031 -1.710389972 -7.957330227
rfingers  -90 -7.125020027 -90
rthumb  -86.52121735 -7.77849865 -65.81232452
rfemur  -12.23587322 15.37204075 12.86165333
rtibia  -0.40035218 -0.9176872373 19.30800629
rfoot  0.7028559446 -21.72928047 -36.13364792
rtoes  4.05636692 19.60837746 -101.9362717
lfemur  -7.941952229 -15.81285954 -20.12180328
ltibia  3.241186857 0.06856954843 13.30908203
lfoot  0.5325661302 -24.67218781 35.89814377
ltoes  -8.667488098 -18.09399223 -116.1432571
48
root  34.85084293 36.55371478 -14.52154775 9.698634148 -4.318328381 3.118066788
lowerback  -8.942580223 -0.2340089828 -0.353602469
upperback  -3.617360115 0.1765699983 -3.25116992
thorax  1.274489999 0.239974007 -3.142869949
lowerneck  -13.55819988 -5.774730206 -4.694459915
upperneck  13.56459999 -7.885009766 6.90418005
head  6.837090015 -3.390379906 2.200870037
lclavicle  0 -4.497500157e-015 -2.743230041e-014
lhumerus  -48.35509872 31.12820053 62.60110092
lradius  0.00954947155 -6.507048965e-006 29.46310043
lwrist  3.192251654e-007 -3.790274832e-007 -28.71559906
lhand  -3.51368687e-031 -36.83649826 -10.7177
lfingers  90 7.125020027 -90
lthumb  94.79534912 -25.55502319 101.0050201
rclavicle  0 -4.497500157e-015 -2.743230041e-014
rhumerus  -40.60950089 -22.68720055 -58.54579926
rradius  -5.16745672e-007 2.214343908e-008 84.27999878
rwrist  0.0006954420824 -0.004670973402 -171.5859985
rhand  -2.987116059e-031 -1.673370004 -8.140789986
rfingers  -90 -7.125020027 -90
rthumb  -86.59039307 -7.613277435 -65.78646851
rfemur  -12.24350357 15.34155178 12.88106346
rtibia  -0.4000370502 -0.9268371463 19.33628273
rfoot  0.7065590024 -21.78074265 -36.07008743
rtoes  4.062222958 19.60762024 -101.9554367
lfemur  -7.869009972 -15.82572174 -20.14507103
ltibia  3.30086875 0.07844664901 13.1931591
lfoot  0.5177310705 -24.62577629 35.89602661
ltoes  -8.64567852 -18.10415268 -116.0730515
49
root  34.84859617 36.55280767 -14.51613208 9.677372932 -4.332004547 3.124459028
lowerback  -8.980771065 -0.230505079 -0.3442329764
upperback  -3.624069929 0.1831250042 -3.258919954
thorax  1.288920045 0.2439599931 -3.155689955
lowerneck  -13.55370045 -5.818749905 -4.729259968
upperneck  13.5934 -7.941990376 6.919260025
head  6.851119995 -3.417399883 2.197660923
lclavicle  0 -4.497500157e-015 -2.743230041e-014
lhumerus  -48.37960052 31.24209976 62.44179916
lradius  0.008804028854 -6.507048965e-006 29.38670158
lwrist  3.192251654e-007 -3.790274832e-007 -29.15909958
lhand  -3.513178311e-031 -36.8064003 -10.72809982
lfingers  90 7.125020027 -90
lthumb  94.78340149 -25.56628418 100.9737473
rclavicle  0 -4.497500157e-015 -2.743230041e-014
rhumerus  -39.85319901 -22.30089951 -58.48630142
rradius  -5.16745672e-007 2.214343908e-008 85.57800293
rwrist  0.0006954420824 -0.004670973402 -172.1239929
rhand  -2.996094386e-031 -1.425629973 -8.007570267
rfingers  -90 -7.125020027 -90
rthumb  -86.48991394 -7.74900198 -65.53800201
rfemur  -12.20063019 15.31934834 12.87581158
rtibia  -0.3831893206 -0.9588214159 19.32722282
rfoot  0.6988638043 -21.88242149 -36.04817963
rtoes  4.067129135 19.60683441 -101.9683533
lfemur  -7.729032516 -15.79046154 -20.20265198
ltibia  3.392476082 0.110294655 13.0145216
lfoot  0.5228542089 -24.61294556 35.94141769
ltoes  -8.658637047 -18.09811974 -116.1147614
50
root  34.85688037 36.55975822 -14.51077799 9.60518837 -4.505047321 3.153472185
lowerback  -9.029349327 -0.1770048887 -0.3536882102
upperback  -3.653909922 0.2593150139 -3.26722002
thorax  1.288810015 0.2834819853 -3.151469946
lowerneck  -13.53800011 -5.86232996 -4.721199989
upperneck  13.60429955 -8.003930092 6.920760155
head  6.855460167 -3.446200132 2.200396299
lclavicle  0 -4.497500157e-015 -2.743230041e-014
lhumerus  -48.38589859 31.29439926 62.375
lradius  0.007869639434 -6.507048965e-006 29.39800072
lwrist  3.192251654e-007 -3.790274832e-007 -29.34539795
lhand  -3.515373168e-031 -36.78749847 -10.70429993
lfingers  90 7.125020027 -90
lthumb  94.76952362 -25.54365158 100.951355
rclavicle  0 -4.497500157e-015 -2.743230041e-014
rhumerus  -39.04800034 -21.97060013 -58.41949844
rradius  -5.16745672e-007 2.214343908e-008 86.84619904
rwrist  0.0006954420824 -0.004670973402 -172.4629974
rhand  -3.012607533e-031 -1.566460013 -7.760399818
rfingers  -90 -7.125020027 -90
rthumb  -86.41292572 -7.966087818 -65.66095734
rfemur  -12.1015749 15.4031601 12.83239079
rtibia  -0.3643805087 -0.9883006811 19.27820778
rfoot  0.7424548268 -21.93123817 -35.95463943
rtoes  4.0595994 19.60601997 -101.9459076
lfemur  -7.537250996 -15.78574848 -20.34760857
ltibia  3.480160475 0.02762051113 12.87956142
lfoot  0.5185544491 -24.41384506 36.03316879
ltoes  -8.637597084 -18.10790825 -116.0470428
51
root  34.85535749 36.56057823 -14.50512653 9.645450592 -4.539190292 3.169053316
lowerback  -9.017669678 -0.1606239378 -0.3401927054
upperback  -3.636980057 0.2782349885 -3.272769928
thorax  1.300940037 0.2920899987 -3.162950039
lowerneck  -13.50739956 -5.914239883 -4.755869865
upperneck  13.57719994 -8.070719719 6.938210011
head  6.851819515 -3.48023963 2.205510139
lclavicle  0 -4.497500157e-015 -2.743230041e-014
lhumerus  -48.30319977 31.20389938 62.53239822
lradius  0.006819933653 -6.507048965e-006 29.45809937
lwrist  3.192251654e-007 -3.790274832e-007 -28.98020172
lhand  -3.518239907e-031 -36.84579849 -10.66149998
lfingers  90 7.125020027 -90
lthumb  94.78783417 -25.49959755 101.0098572
rclavicle  0 -4.497500157e-015 -2.743230041e-014
rhumerus  -38.17229843 -21.53420067 -58.34009933
rradius  -5.16745672e-007 2.214343908e-008 88.23439789
rwrist  0.0006954420824 -0.004670973402 -172.8079987
rhand  -2.988394888e-031 -0.7895280123 -8.124389648
rfingers  -90 -7.125020027 -90
rthumb  -86.42189789 -7.680348396 -64.92584229
rfemur  -12.15457058 15.4137392 12.81622314
rtibia  -0.3778223097 -0.9870589375 19.31117439
rfoot  0.742505908 -21.91845131 -35.9059906
rtoes  4.08140564 19.60518074 -102.0109177
lfemur  -7.512562752 -15.75743198 -20.38287544
ltibia  3.538896561 0.03118526191 12.77165318
lfoot  0.5090298057 -24.35545349 36.03034592
ltoes  -8.633167267 -18.10996437 -116.0327988
52
root  34.85498804 36.55525868 -14.50000673 9.67552948 -4.56322813 3.167720079
lowerback  -9.040678978 -0.1519969404 -0.3575651646
upperback  -3.617310047 0.292441994 -3.29166007
thorax  1.334759951 0.2994140089 -3.171360016
lowerneck  -13.48400021 -5.97217989 -4.782730103
upperneck  13.55599976 -8.149450302 6.971290112
head  6.844399929 -3.516930103 2.209439039
lclavicle  0 -4.497500157e-015 -2.743230041e-014
lhumerus  -48.2336998 31.19759941 62.55619812
lradius  0.00569963688 -6.507048965e-006 29.46640015
lwrist  3.192251654e-007 -3.790274832e-007 -28.89249992
lhand  -3.519951718e-031 -36.78160095 -10.64990044
lfingers  90 7.125020027 -90
lthumb  94.7552948 -25.49032021 100.9401245
rclavicle  0 -4.497500157e-015 -2.743230041e-014
rhumerus  -37.27519989 -21.17469978 -58.27470016
rradius  -5.16745672e-007 2.214343908e-008 89.5102005
rwrist  0.0006954420824 -0.004670973402 -172.9949951
rhand  -3.000363295e-031 -0.8801969886 -7.945320129
rfingers  -90 -7.125020027 -90
rthumb  -86.36234283 -7.837220192 -65.0037384
rfemur  -12.18889332 15.35143948 12.80076504
rtibia  -0.3786990941 -1.020187259 19.29999161
rfoot  0.7340402007 -21.96819496 -35.88969803
rtoes  4.104057789 19.6043129 -102.0784683
lfemur  -7.568714619 -15.74860001 -20.37073135
ltibia  3.519858122 0.005557806231 12.82112598
lfoot  0.4965738952 -24.31454468 35.9813385
ltoes  -8.672623634 -18.0915947 -116.15979
53
root  34.84483854 36.56308632 -14.49306518 9.729206085 -4.464979649 3.167366743
lowerback  -9.007950783 -0.182987988 -0.3344295621
upperback  -3.601109982 0.2478519976 -3.303600073
thorax  1.33118999 0.2764039934 -3.201319933
lowerneck  -13.45540047 -6.007589817 -4.796899796
upperneck  13.52910042 -8.196009636 6.979000092
head  6.834609985 -3.540640116 2.209810019
lclavicle  0 -4.497500157e-015 -2.743230041e-014
lhumerus  -48.24940109 31.34009933 62.45529938
lradius  0.004553478677 -6.507048965e-006 29.44669914
lwrist  3.192251654e-007 -3.790274832e-007 -29.09519958
lhand  -3.517268817e-031 -36.80120087 -10.67949963
lfingers  90 7.125020027 -90
lthumb  94.77070618 -25.51869392 100.963768
rclavicle  0 -4.497500157e-015 -2.743230041e-014
rhumerus  -36.28649902 -20.77829933 -58.08409882
rradius  -5.16745672e-007 2.214343908e-008 90.58850098
rwrist  0.0006954420824 -0.004670973402 -173.5350037
rhand  -2.99659963e-031 -0.973976016 -8.001350403
rfingers  -90 -7.125020027 -90
rthumb  -86.40371704 -7.780956745 -65.09815216
rfemur  -12.201478 15.28442287 12.8234663
rtibia  -0.3761758208 -0.9930996895 19.28262138
rfoot  0.7391549349 -21.90499496 -35.91159821
rtoes  4.123615742 19.60341835 -102.1368027
lfemur  -7.606997967 -15.78686333 -20.34899712
ltibia  3.544549942 0.02377062105 12.78638363
lfoot  0.4754013717 -24.30980873 35.89502335
ltoes  -8.663450241 -18.09587479 -116.1302567
